<svg xmlns="http://www.w3.org/2000/svg" xmlns:xlink="http://www.w3.org/1999/xlink" version="1.1" x="0px" y="0px" viewBox="0 0 60 75" enable-background="new 0 0 60 60" xml:space="preserve"><rect x="-14" y="-13" display="none" fill="#000000" width="198" height="87"/><path d="M33.199,14.344c-0.112-0.152-0.274-0.245-0.459-0.308c0,0.002-0.001,0.003-0.002,0.005c0.159-0.575,0.205-1.164,0.143-1.596  c-0.022-0.159,0.119-0.496,0.265-0.918c0.159-0.212,0.252-0.588,0.277-1.168c0.017-0.171,0.015-0.34-0.002-0.508  C33.293,4.393,28.122,0,21.75,0c-6.452,0-11.682,4.502-11.682,10.057c0,0.185,0.004,0.342,0.012,0.485l-0.012,0.022  c0,0,0.006,0.021,0.017,0.061c0.029,0.457,0.101,0.695,0.219,0.769c0.21,0.712,0.172,1.778,0.316,2.701  c-0.123,0.061-0.232,0.139-0.314,0.249c-0.358,0.485-0.206,1.541-0.206,2.273c0,1.471,0.89,2.664,1.992,2.685  c1.393,5.331,5.187,9.163,9.659,9.163c4.473,0,8.267-3.832,9.66-9.163c1.103-0.022,1.992-1.214,1.992-2.685  C33.404,15.884,33.555,14.829,33.199,14.344z"/><path d="M49.113,57.509v-16.86H26.35v16.86h7.857v1.593h-2.513V60h12.078v-0.898h-2.379v-1.593H49.113z M27.45,56.408V41.591h20.564  v14.817H27.45z"/><path d="M24,52.36V39h18.47c0.088-1.384,0.09-2.781,0.03-4.039c-2.256-2.305-4.5-3.896-7.5-5v-0.065  c-2-0.993-4.43-1.581-6.447-1.917c-1.037,1.102-4.677,5.13-6.905,8.547c-2.228-3.417-5.974-7.444-7.011-8.547  C12.62,28.315,10,28.902,8,29.896v0.065c-2,1.104-5.012,2.695-7.268,5c-0.181,3.772,0.21,8.802,1.827,10.958  c1.457,1.942,3.911,5.634,15.171,6.344c0,0,0.27,0.05,1.27,0.097v0.016c1,0.055,1.677,0.072,2.5,0.068  c0.823,0.004,1.5-0.013,2.5-0.068V52.36z"/><text x="0" y="75" fill="#000000" font-size="5px" font-weight="bold" font-family="'Helvetica Neue', Helvetica, Arial-Unicode, Arial, Sans-serif">Created by AS Design</text><text x="0" y="80" fill="#000000" font-size="5px" font-weight="bold" font-family="'Helvetica Neue', Helvetica, Arial-Unicode, Arial, Sans-serif">from the Noun Project</text></svg>